<svg width="347" height="81" viewBox="0 0 347 81" fill="none" xmlns="http://www.w3.org/2000/svg">
<path d="M94.7712 3.04301C94.7712 1.07489 95.7414 0.0908348 97.682 0.0908348C99.6225 0.0908348 100.593 1.07489 100.593 3.04301V14.0342H105.141L113.009 1.58963C113.065 1.50118 113.122 1.41681 113.18 1.33652C113.186 1.32825 113.192 1.32003 113.198 1.31184L113.205 1.30285C113.68 0.661566 114.236 0.287839 114.874 0.181672C115.602 0.0302792 116.269 0.136254 116.875 0.499597C117.512 0.832663 117.936 1.3474 118.149 2.04381C118.361 2.70994 118.194 3.45177 117.648 4.26929L117.534 4.44283L117.531 4.44846L110.553 15.0788C110.84 15.2077 111.118 15.3493 111.388 15.5036C111.409 15.5154 111.43 15.5274 111.45 15.5394C111.692 15.68 111.927 15.831 112.155 15.9922C112.478 16.2203 112.786 16.469 113.082 16.7383C113.308 16.9451 113.527 17.164 113.737 17.3951C114.255 17.929 114.741 18.541 115.194 19.2311C115.538 19.7546 115.863 20.323 116.17 20.9364L116.177 20.9492C116.187 20.9701 116.198 20.9909 116.208 21.0119C116.218 21.0325 116.228 21.0532 116.238 21.0739L119.968 28.7042C120.453 29.6731 120.529 30.5057 120.195 31.2021C120.111 31.3881 120.011 31.5588 119.895 31.7141C119.597 32.115 119.197 32.4137 118.694 32.6101C117.997 32.8826 117.269 32.8978 116.511 32.6555C115.858 32.4379 115.326 31.9638 114.917 31.233C114.908 31.2174 114.9 31.2016 114.891 31.1856C114.854 31.1176 114.818 31.0474 114.783 30.9751L111.19 23.254C110.802 22.4139 110.37 21.7031 109.896 21.1216C109.86 21.0774 109.823 21.034 109.787 20.9913C109.632 20.8112 109.474 20.6444 109.311 20.4908C109.068 20.2621 108.815 20.0628 108.552 19.8931C108.511 19.8655 108.469 19.8384 108.426 19.8119C108.158 19.6442 107.872 19.4995 107.568 19.3777C106.856 19.0928 106.047 18.9337 105.141 18.9005C105.021 18.8961 104.9 18.8939 104.777 18.8939H100.593V29.8396C100.593 31.838 99.6225 32.8372 97.682 32.8372C95.7414 32.8372 94.7712 31.838 94.7712 29.8396V3.04301Z" fill="black"/>
<path fill-rule="evenodd" clip-rule="evenodd" d="M129.323 30.8842C128.613 30.4643 127.951 29.9926 127.339 29.4691C126.951 29.1371 126.582 28.7843 126.233 28.4106C125.661 27.7976 125.141 27.1286 124.675 26.4036L124.662 26.3833L124.648 26.3611C124.402 25.9769 124.172 25.577 123.956 25.1616C122.913 23.1273 122.297 20.8084 122.108 18.205L122.107 18.1953C122.082 17.8472 122.065 17.494 122.055 17.1357C122.049 16.9063 122.046 16.6749 122.046 16.4413C122.046 13.0804 122.683 10.1736 123.956 7.72106C124.596 6.48808 125.367 5.39667 126.267 4.44683C127.158 3.50731 128.177 2.7063 129.323 2.04381C131.627 0.68127 134.341 0 137.464 0C140.587 0 143.301 0.68127 145.605 2.04381C146.751 2.7063 147.77 3.50731 148.661 4.44683C148.672 4.45925 148.684 4.47169 148.696 4.48416C149.581 5.42523 150.34 6.50419 150.972 7.72106C152.246 10.1736 152.882 13.0652 152.882 16.3959L152.882 16.4413C152.879 18.1682 152.708 19.7788 152.368 21.2733C152.253 21.7796 152.118 22.2725 151.964 22.7521C151.953 22.7878 151.941 22.8234 151.93 22.8589C151.666 23.6644 151.346 24.4319 150.972 25.1616C150.388 26.2856 149.696 27.2952 148.896 28.1904C148.837 28.2564 148.777 28.3218 148.717 28.3867L148.695 28.4106C148.195 28.9458 147.655 29.4382 147.074 29.888C146.61 30.2473 146.121 30.5794 145.605 30.8842C143.301 32.2468 140.587 32.928 137.464 32.928C134.371 32.928 131.658 32.2468 129.323 30.8842ZM130.596 24.889C130.026 24.1819 129.554 23.3792 129.183 22.4808L129.171 22.4535C128.484 20.7799 128.14 18.7759 128.14 16.4413C128.14 14.0952 128.482 12.0899 129.164 10.4254C129.539 9.5122 130.016 8.70157 130.596 7.99356C131.017 7.48035 131.48 7.03303 131.987 6.65162C132.001 6.6411 132.015 6.63064 132.029 6.62022C133.487 5.53739 135.299 4.99598 137.464 4.99598C139.645 4.99598 141.459 5.53434 142.905 6.61107C142.919 6.62149 142.933 6.63195 142.947 6.64247C143.454 7.02587 143.916 7.47624 144.332 7.99356C144.912 8.70157 145.389 9.5122 145.764 10.4254C146.442 12.0791 146.783 14.0693 146.788 16.3959L146.788 16.4413C146.788 18.7759 146.444 20.7799 145.757 22.4535L145.745 22.4808C145.374 23.3792 144.902 24.1819 144.332 24.889C143.897 25.4278 143.416 25.8951 142.889 26.2908C141.432 27.385 139.624 27.9321 137.464 27.9321C135.304 27.9321 133.496 27.385 132.039 26.2908L132.014 26.2723C131.497 25.8806 131.024 25.4195 130.596 24.889Z" fill="black"/>
<path d="M156.423 32.8372C155.834 32.7349 155.309 32.4379 154.85 31.9464C154.766 31.8563 154.684 31.7596 154.604 31.6563C154.119 30.9599 153.952 30.2787 154.103 29.6125C154.275 28.986 154.674 28.4399 155.301 27.9741C155.336 27.9475 155.373 27.9212 155.41 27.8951L155.422 27.8866C155.537 27.8094 155.65 27.73 155.761 27.6483L155.785 27.6304C156.435 27.1498 157.025 26.5929 157.554 25.9595C157.842 25.6144 158.112 25.2465 158.365 24.856C158.376 24.8384 158.388 24.8209 158.399 24.8032C158.485 24.668 158.569 24.5301 158.652 24.3895C158.724 24.2693 158.795 24.1463 158.865 24.0203C159.501 22.8701 160.006 21.4783 160.383 19.8447C160.464 19.4935 160.538 19.1312 160.607 18.7576C160.968 16.8009 161.176 14.4392 161.23 11.6724C161.239 11.1854 161.244 10.6858 161.244 10.1736V3.5426C161.244 1.48365 162.275 0.454179 164.337 0.454179H180.801C181.557 0.454179 182.175 0.59269 182.654 0.869712C183.481 1.34792 183.894 2.23888 183.894 3.5426V29.8396C183.894 31.1477 183.478 32.0277 182.647 32.4796C182.208 32.718 181.653 32.8372 180.983 32.8372C179.043 32.8372 178.072 31.838 178.072 29.8396V5.3139H166.611V11.6724C166.611 14.7185 166.391 17.4088 165.951 19.7433C165.861 20.2166 165.763 20.6753 165.656 21.1194C165.097 23.432 164.316 25.4296 163.313 27.1122C163.305 27.1254 163.297 27.1385 163.289 27.1516L163.27 27.1836C163.144 27.3926 163.014 27.5966 162.881 27.7958C162.326 28.6494 161.707 29.4362 161.024 30.1561C160.749 30.4458 160.464 30.7248 160.168 30.9928C160.09 31.064 160.011 31.1344 159.931 31.2041C159.477 31.5996 159 31.9705 158.5 32.3167L158.47 32.3376C158.459 32.3457 158.447 32.3537 158.436 32.3616C157.78 32.8275 157.109 32.9861 156.423 32.8372Z" fill="black"/>
<path d="M189.327 29.8396V3.5426C189.327 2.23888 189.74 1.34792 190.567 0.86971C191.046 0.59269 191.663 0.454179 192.42 0.454179H214.114C216.176 0.454179 217.207 1.48365 217.207 3.5426V29.8396C217.207 31.4348 216.589 32.3933 215.352 32.7152C215.04 32.7965 214.688 32.8372 214.296 32.8372C212.356 32.8372 211.386 31.838 211.386 29.8396V5.3139H195.149V29.8396C195.149 31.838 194.178 32.8372 192.238 32.8372C191.568 32.8372 191.013 32.718 190.574 32.4796C189.743 32.0277 189.327 31.1477 189.327 29.8396Z" fill="black"/>
<path fill-rule="evenodd" clip-rule="evenodd" d="M234.47 2.54341C234.864 1.66533 235.334 1.04461 235.88 0.681269C236.432 0.304118 237.053 0.107651 237.745 0.0918687C237.775 0.0911794 237.805 0.0908348 237.835 0.0908348C238.533 0.0908348 239.154 0.287646 239.7 0.681269C240.276 1.04461 240.761 1.66533 241.156 2.54341L252.802 28.2176L252.807 28.2278L253.208 29.1129C253.323 29.3645 253.413 29.6068 253.477 29.8396C253.682 30.5874 253.623 31.2384 253.299 31.7926C252.981 32.3145 252.493 32.6409 251.834 32.7716C251.614 32.8153 251.374 32.8372 251.116 32.8372C250.267 32.8372 249.6 32.6404 249.115 32.2468C248.857 32.0063 248.614 31.6977 248.385 31.321L248.375 31.3052C248.204 31.0215 248.042 30.6995 247.887 30.3392L245.613 25.0707H229.967L227.739 30.3392C227.58 30.6916 227.42 31.005 227.257 31.2794C227.242 31.3037 227.228 31.3278 227.213 31.3516C226.984 31.7267 226.75 32.0251 226.511 32.2468C226.086 32.6404 225.48 32.8372 224.691 32.8372C224.375 32.8372 224.086 32.8049 223.823 32.7404C223.205 32.5884 222.737 32.2573 222.417 31.7472C222.073 31.1978 221.998 30.562 222.192 29.8396C222.254 29.6064 222.344 29.3642 222.463 29.1129L234.47 2.54341ZM237.835 6.76728L243.612 20.4381H231.968L237.745 6.76728H237.835Z" fill="black"/>
<path d="M258.442 29.8396V3.04301C258.442 1.07489 259.412 0.0908348 261.353 0.0908348C263.293 0.0908348 264.263 1.07489 264.263 3.04301V14.0342H268.812L276.68 1.58963C276.736 1.50118 276.793 1.41681 276.851 1.33652C276.859 1.32521 276.867 1.31399 276.876 1.30285C277.35 0.661564 277.907 0.287839 278.545 0.181672C279.272 0.0302792 279.939 0.136254 280.546 0.499597C281.183 0.832663 281.607 1.3474 281.819 2.04381C282.032 2.70994 281.865 3.45177 281.319 4.26929L281.205 4.44283L281.201 4.44845L274.224 15.0788C274.511 15.2077 274.789 15.3493 275.059 15.5036C275.08 15.5154 275.1 15.5274 275.121 15.5394C275.363 15.68 275.598 15.831 275.826 15.9922C276.148 16.2203 276.457 16.469 276.752 16.7383C276.979 16.9451 277.197 17.164 277.408 17.3951C277.925 17.929 278.411 18.541 278.865 19.2311C279.209 19.7546 279.534 20.323 279.841 20.9364L279.847 20.9492C279.868 20.9906 279.889 21.0322 279.909 21.0739L283.639 28.7042C284.124 29.6731 284.199 30.5057 283.866 31.2021C283.781 31.3881 283.681 31.5588 283.566 31.714C283.268 32.115 282.868 32.4137 282.365 32.6101C281.668 32.8826 280.94 32.8978 280.182 32.6555C279.528 32.4379 278.997 31.9638 278.588 31.2331C278.579 31.2174 278.57 31.2016 278.562 31.1856C278.525 31.1176 278.489 31.0474 278.454 30.9751L274.861 23.254C274.472 22.4139 274.041 21.7031 273.566 21.1216C273.53 21.0774 273.494 21.0339 273.457 20.9913C273.303 20.8112 273.144 20.6443 272.981 20.4908C272.738 20.2621 272.485 20.0628 272.223 19.8931C272.181 19.8655 272.139 19.8384 272.097 19.8119C271.828 19.6442 271.542 19.4995 271.238 19.3777C270.527 19.0928 269.718 18.9337 268.812 18.9005C268.692 18.8961 268.571 18.8939 268.448 18.8939H264.263V29.8396C264.263 31.838 263.293 32.8372 261.353 32.8372C260.983 32.8372 260.648 32.8009 260.349 32.7283C259.077 32.42 258.442 31.4571 258.442 29.8396Z" fill="black"/>
<path fill-rule="evenodd" clip-rule="evenodd" d="M292.993 30.8842C292.283 30.4643 291.622 29.9926 291.01 29.4691C290.621 29.1371 290.253 28.7843 289.904 28.4106C289.331 27.7976 288.812 27.1286 288.345 26.4035L288.318 26.3611C288.073 25.9769 287.842 25.577 287.627 25.1616C286.583 23.1273 285.967 20.8084 285.779 18.205L285.778 18.1953C285.753 17.8472 285.736 17.494 285.726 17.1357C285.719 16.9063 285.716 16.6749 285.716 16.4413C285.716 13.0804 286.353 10.1736 287.627 7.72106C288.267 6.48808 289.037 5.39667 289.938 4.44684C290.829 3.50731 291.848 2.7063 292.993 2.04381C295.298 0.68127 298.012 0 301.135 0C304.258 0 306.971 0.68127 309.276 2.04381C310.422 2.7063 311.44 3.50731 312.331 4.44683L312.366 4.48416C313.233 5.40471 313.978 6.45721 314.601 7.64166L314.622 7.68109L314.643 7.72106C315.916 10.1736 316.553 13.0652 316.553 16.3959L316.553 16.4413C316.547 19.7831 315.91 22.6899 314.643 25.1616C314.629 25.1881 314.615 25.2146 314.601 25.241C313.977 26.426 313.232 27.4825 312.366 28.4106C311.466 29.3734 310.436 30.1979 309.276 30.8842C306.971 32.2468 304.258 32.928 301.135 32.928C298.042 32.928 295.328 32.2468 292.993 30.8842ZM294.267 24.889C293.696 24.1819 293.225 23.3792 292.853 22.4808L292.842 22.4535C292.155 20.7799 291.811 18.7759 291.811 16.4413C291.811 14.0952 292.152 12.0899 292.835 10.4254C293.209 9.5122 293.687 8.70157 294.267 7.99356C294.687 7.48035 295.151 7.03303 295.657 6.65162C295.671 6.6411 295.685 6.63064 295.699 6.62022C297.158 5.53739 298.97 4.99598 301.135 4.99598C303.316 4.99598 305.129 5.53434 306.575 6.61107L306.599 6.62897L306.617 6.64247C307.125 7.02587 307.586 7.47624 308.002 7.99356C308.582 8.70158 309.06 9.51221 309.434 10.4255C310.113 12.0791 310.454 14.0693 310.458 16.3959L310.458 16.4413C310.458 18.7759 310.115 20.7799 309.427 22.4535L309.416 22.4808C309.044 23.3792 308.573 24.1819 308.002 24.889C307.567 25.4278 307.087 25.8951 306.56 26.2908C305.103 27.385 303.295 27.9321 301.135 27.9321C298.975 27.9321 297.166 27.385 295.709 26.2908L295.685 26.2723C295.168 25.8806 294.695 25.4195 294.267 24.889Z" fill="black"/>
<path fill-rule="evenodd" clip-rule="evenodd" d="M345.454 18.6668C346 19.3403 346.401 20.1114 346.658 20.9802C346.864 21.6756 346.977 22.4335 346.997 23.254C346.999 23.3441 347 23.4349 347 23.5265C347 26.3727 346.03 28.583 344.089 30.1575C342.179 31.7017 339.511 32.4739 336.085 32.4739H324.669C322.607 32.4739 321.576 31.4444 321.576 29.3854V3.5426C321.576 1.48365 322.607 0.454179 324.669 0.454179H335.584C338.95 0.454179 341.558 1.19601 343.407 2.67966C345.257 4.13304 346.182 6.16171 346.182 8.76567C346.182 8.99712 346.174 9.22421 346.158 9.44694C346.136 9.75951 346.098 10.0635 346.045 10.3589C345.852 11.4227 345.459 12.3753 344.863 13.2166C344.635 13.5381 344.385 13.8373 344.112 14.1142C343.333 14.9062 342.37 15.5154 341.224 15.9417C342.447 16.2877 343.485 16.8114 344.338 17.513C344.754 17.8553 345.126 18.2399 345.454 18.6668ZM340.684 25.9444L340.678 25.9531C339.868 27.2301 338.337 27.9289 336.085 28.0495C335.85 28.062 335.607 28.0683 335.357 28.0683H327.17V18.4397H335.357C337.535 18.4397 339.121 18.9151 340.114 19.866C340.182 19.9313 340.247 19.9988 340.31 20.0686C340.759 20.5692 341.064 21.1852 341.225 21.9167C341.236 21.9671 341.247 22.018 341.256 22.0695C341.326 22.4365 341.361 22.8313 341.361 23.254C341.361 23.3462 341.359 23.437 341.356 23.5265C341.32 24.4838 341.096 25.2898 340.684 25.9444ZM327.17 14.0342V4.85972H334.584C334.933 4.85972 335.266 4.87152 335.584 4.89511C337.74 5.05493 339.193 5.75615 339.943 6.99876C339.953 7.01577 339.963 7.03288 339.973 7.05009C340.257 7.53983 340.435 8.11169 340.506 8.76567C340.53 8.98364 340.542 9.21073 340.542 9.44694C340.542 9.68409 340.53 9.91205 340.506 10.1308C340.426 10.8652 340.211 11.4959 339.862 12.0231C339.842 12.0535 339.821 12.0836 339.8 12.1133C338.987 13.261 337.506 13.8944 335.357 14.0135C335.108 14.0273 334.85 14.0342 334.584 14.0342H327.17Z" fill="black"/>
<path d="M248.355 41.978C249.098 42.355 249.908 42.5788 250.737 42.6379C250.884 42.6484 251.031 42.6537 251.179 42.6537C251.327 42.6538 251.474 42.6486 251.621 42.6383C252.45 42.5798 253.26 42.3567 254.004 41.9802L254.005 41.9797C254.289 41.8355 254.562 41.6702 254.82 41.4855C255.033 41.3328 255.266 41.2038 255.509 41.105C256.276 40.7928 257.143 40.7811 257.811 41.2711C257.849 41.299 257.886 41.3281 257.922 41.3582C258.612 41.9438 258.811 42.926 258.327 43.6349C258.278 43.7055 258.223 43.7734 258.161 43.838C258.138 43.862 258.114 43.8856 258.089 43.9086C257.782 44.1909 257.458 44.4542 257.119 44.6969C256.698 44.9984 256.253 45.2683 255.788 45.5036L255.787 45.5042C255.572 45.613 255.354 45.7139 255.132 45.8069C255.115 45.8143 255.097 45.8216 255.08 45.8289C254.806 45.942 254.528 46.0431 254.246 46.1318C253.878 46.2478 253.504 46.3427 253.125 46.4162C252.93 46.4541 252.734 46.4863 252.536 46.5127C252.087 46.5729 251.633 46.6032 251.178 46.6031C250.612 46.6028 250.05 46.5557 249.496 46.4629C249.407 46.448 249.318 46.4319 249.23 46.4146C248.851 46.3409 248.477 46.2456 248.109 46.1294C247.581 45.9626 247.066 45.7526 246.569 45.5005L246.567 45.5C246.103 45.2643 245.658 44.9941 245.237 44.6923C244.898 44.4492 244.575 44.1857 244.268 43.9032C243.466 43.1639 243.668 41.9103 244.548 41.2659C244.567 41.252 244.586 41.2385 244.605 41.2255C245.266 40.7774 246.105 40.7976 246.851 41.1016C247.093 41.2006 247.326 41.3298 247.539 41.4827C247.797 41.6675 248.069 41.8331 248.354 41.9775L248.355 41.978Z" fill="black"/>
<path d="M243.138 50.1443V70.2645L259.375 49.0543C259.829 48.4487 260.269 48.0248 260.693 47.7826C260.893 47.6544 261.123 47.5563 261.383 47.4884C261.676 47.412 262.007 47.3739 262.376 47.3739C262.984 47.3739 263.487 47.543 263.883 47.8812C263.961 47.9478 264.035 48.0209 264.105 48.1005C264.529 48.585 264.741 49.236 264.741 50.0535V77.3043C264.741 79.1816 263.847 80.1202 262.058 80.1202C260.239 80.1202 259.329 79.1816 259.329 77.3043V57.1387L243.092 78.3943C242.607 78.9999 242.167 79.4389 241.773 79.7114C241.409 79.984 240.879 80.1202 240.181 80.1202C239.615 80.1202 239.146 80.0024 238.776 79.7669C238.126 79.3538 237.778 78.5783 237.731 77.4406C237.727 77.3519 237.725 77.2611 237.725 77.168V50.1443C237.725 50.0984 237.726 50.0529 237.727 50.0081C237.75 49.0732 238.019 48.3871 238.533 47.9499C238.613 47.8818 238.699 47.8197 238.791 47.7637C239.217 47.5038 239.772 47.3739 240.454 47.3739C240.66 47.3739 240.853 47.386 241.035 47.4104C242.437 47.5983 243.138 48.5096 243.138 50.1443Z" fill="black"/>
<path d="M231.057 63.4972C231.057 64.0535 230.955 64.5096 230.75 64.8655C230.387 65.4975 229.701 65.8135 228.692 65.8135H215.957V75.1242H229.693C230.097 75.1242 230.45 75.175 230.75 75.2766C231.551 75.547 231.984 76.1775 232.049 77.168C232.055 77.256 232.058 77.3469 232.058 77.4406C232.058 78.4886 231.695 79.181 230.969 79.5177C230.625 79.6772 230.199 79.7569 229.693 79.7569H213.456C211.394 79.7569 210.363 78.7274 210.363 76.6684V50.8256C210.363 50.5844 210.377 50.3573 210.406 50.1443C210.56 48.9805 211.138 48.2387 212.137 47.9189C212.516 47.7978 212.956 47.7372 213.456 47.7372H229.693C230.193 47.7372 230.615 47.8135 230.956 47.9661C231.691 48.2942 232.058 48.9749 232.058 50.0081C232.058 50.0542 232.057 50.0996 232.056 50.1443C232.023 51.236 231.588 51.9261 230.75 52.2145C230.45 52.3181 230.097 52.3698 229.693 52.3698H215.957V61.1809H228.692C229.701 61.1809 230.387 61.4969 230.75 62.129C230.955 62.4849 231.057 62.9409 231.057 63.4972Z" fill="black"/>
<path d="M202.894 47.7372C203.218 47.7372 203.511 47.7676 203.772 47.8282C204.854 48.0796 205.395 48.8517 205.395 50.1443C205.395 50.3899 205.376 50.617 205.339 50.8256C205.152 51.8615 204.502 52.443 203.388 52.5702C203.232 52.588 203.068 52.5969 202.894 52.5969H189.658V77.1226C189.658 79.121 188.688 80.1202 186.748 80.1202C184.807 80.1202 183.837 79.121 183.837 77.1226V50.7348C183.837 50.545 183.846 50.3642 183.864 50.1925C184.036 48.5556 185.027 47.7372 186.839 47.7372H202.894Z" fill="black"/>
<path d="M145.462 47.7372C146.014 47.7372 146.469 47.8299 146.828 48.0154C147.494 48.3598 147.827 49.024 147.827 50.0081C147.827 50.2545 147.808 50.4815 147.77 50.6894C147.625 51.4691 147.208 51.9774 146.52 52.2145C146.219 52.3181 145.867 52.3698 145.462 52.3698H131.727V61.1809H144.462C145.47 61.1809 146.157 61.4969 146.52 62.129C146.725 62.4849 146.827 62.9409 146.827 63.4972C146.827 64.0535 146.725 64.5096 146.52 64.8655C146.157 65.4975 145.47 65.8135 144.462 65.8135H131.727V75.1242H145.462C145.867 75.1242 146.219 75.175 146.52 75.2766C147.308 75.5429 147.74 76.1582 147.815 77.1226C147.823 77.2247 147.827 77.3307 147.827 77.4406C147.827 78.4787 147.471 79.1679 146.758 79.5081C146.411 79.674 145.979 79.7569 145.462 79.7569H129.225C128.061 79.7569 127.225 79.4284 126.718 78.7715C126.342 78.2833 126.147 77.6137 126.133 76.7627C126.133 76.7473 126.133 76.7319 126.133 76.7164C126.133 76.7005 126.133 76.6845 126.133 76.6684V50.8256C126.133 50.6658 126.139 50.5121 126.151 50.3647C126.153 50.3463 126.155 50.3281 126.156 50.31C126.216 49.6914 126.386 49.1844 126.669 48.7889C127.17 48.0878 128.022 47.7372 129.225 47.7372H145.462Z" fill="black"/>
<path fill-rule="evenodd" clip-rule="evenodd" d="M153.495 77.1226V50.6894C153.495 50.4474 153.51 50.2203 153.539 50.0081C153.66 49.1462 154.027 48.5297 154.639 48.1585C155.103 47.8776 155.707 47.7372 156.451 47.7372H167.412C170.929 47.7372 173.643 48.6153 175.553 50.3714C176.056 50.8332 176.492 51.343 176.862 51.901C177.9 53.4653 178.419 55.4081 178.419 57.7292C178.419 60.0502 177.9 62.0012 176.862 63.582C176.492 64.1459 176.056 64.6626 175.553 65.1323C173.643 66.8884 170.929 67.7665 167.412 67.7665H159.316V77.1226C159.316 79.121 158.346 80.1202 156.406 80.1202C155.644 80.1202 155.032 79.9664 154.569 79.6587C153.917 79.225 153.562 78.4856 153.503 77.4406C153.498 77.3375 153.495 77.2316 153.495 77.1226ZM159.316 63.1793V52.3244H166.502C166.818 52.3244 167.121 52.3346 167.412 52.3551C169.511 52.5022 170.994 53.1795 171.862 54.3868C172.473 55.2377 172.779 56.3518 172.779 57.7292C172.779 59.1234 172.471 60.2501 171.855 61.1093C171.846 61.1222 171.836 61.135 171.827 61.1477C170.955 62.3351 169.483 63.002 167.412 63.1484C167.121 63.169 166.818 63.1793 166.502 63.1793H159.316Z" fill="black"/>
<path d="M119.158 72.9685C119.543 73.1786 119.843 73.4884 120.059 73.898C120.392 74.443 120.499 75.0485 120.377 75.7147C120.316 76.052 120.181 76.3699 119.971 76.6684C119.774 76.9498 119.512 77.2139 119.183 77.4607C119.172 77.4692 119.161 77.4776 119.149 77.486L119.13 77.4997C119.107 77.5164 119.084 77.533 119.061 77.5495C118.42 78.0037 117.714 78.404 116.941 78.7506C116.618 78.895 116.285 79.0301 115.94 79.1558C115.567 79.2913 115.182 79.416 114.783 79.5298C114.728 79.5448 114.673 79.5595 114.618 79.574C114.576 79.585 114.534 79.5959 114.492 79.6066C112.977 79.9945 111.436 80.1958 109.871 80.2102C109.81 80.2108 109.75 80.2111 109.689 80.2111C106.354 80.2111 103.488 79.5449 101.093 78.2127C99.9573 77.5583 98.9473 76.7782 98.0632 75.8724C97.1065 74.8922 96.2972 73.7647 95.6353 72.49C94.3618 70.0071 93.7251 67.0853 93.7251 63.7243C93.7251 60.3634 94.3618 57.4566 95.6353 55.0041C96.2987 53.7265 97.1102 52.6009 98.0698 51.6273C98.0802 51.6167 98.0907 51.6062 98.1011 51.5956C98.9761 50.7138 99.9735 49.9575 101.093 49.3268C103.488 47.9643 106.354 47.283 109.689 47.283C109.75 47.283 109.81 47.2833 109.871 47.2839C111.419 47.2982 112.942 47.4958 114.438 47.8765C114.492 47.8904 114.547 47.9045 114.601 47.9189C115.026 48.0308 115.436 48.1554 115.833 48.2927C116.06 48.3712 116.282 48.4537 116.5 48.5404C116.606 48.5829 116.712 48.6263 116.816 48.6707C117.539 48.9782 118.211 49.3332 118.831 49.7356C118.897 49.7785 118.96 49.8222 119.022 49.8666C119.043 49.8819 119.063 49.8972 119.084 49.9125C119.119 49.9387 119.153 49.965 119.186 49.9916C119.505 50.2467 119.755 50.5247 119.936 50.8256C120.083 51.0681 120.184 51.3255 120.241 51.5977C120.392 52.2941 120.301 52.9451 119.968 53.5507C119.762 53.9065 119.492 54.1928 119.158 54.4096C118.952 54.5434 118.722 54.6507 118.467 54.7316C117.8 54.9132 117.057 54.7316 116.238 54.1866C116.169 54.1416 116.098 54.0975 116.028 54.0543L116.016 54.0471C115.295 53.6081 114.53 53.2647 113.722 53.0169C113.683 53.005 113.645 52.9934 113.606 52.982C113.536 52.9614 113.465 52.9415 113.395 52.9224C113.371 52.916 113.348 52.9097 113.324 52.9035C113.312 52.9004 113.3 52.8973 113.289 52.8943C113.256 52.8858 113.224 52.8776 113.191 52.8694C112.1 52.5969 110.993 52.4607 109.871 52.4607C109.81 52.4607 109.75 52.461 109.689 52.4617C107.318 52.489 105.367 53.0516 103.836 54.1495L103.817 54.1631C103.319 54.5227 102.866 54.9393 102.458 55.4128C101.858 56.0972 101.364 56.8853 100.976 57.7774C100.266 59.4113 99.9106 61.3936 99.9106 63.7243C99.9106 66.0652 100.269 68.0611 100.986 69.7119L100.998 69.7396C101.382 70.6184 101.869 71.3989 102.458 72.0812C102.864 72.5527 103.315 72.9677 103.811 73.3262C103.834 73.3428 103.857 73.3592 103.88 73.3755C105.404 74.4531 107.34 75.0054 109.689 75.0324C109.75 75.0331 109.81 75.0334 109.871 75.0334C111.023 75.0334 112.16 74.8972 113.282 74.6246C113.314 74.6162 113.345 74.6076 113.376 74.5989L113.405 74.5909C113.415 74.588 113.425 74.5851 113.436 74.5822C113.457 74.5762 113.478 74.5702 113.499 74.5641C113.569 74.5436 113.64 74.5225 113.71 74.5008C114.564 74.2373 115.381 73.8836 116.163 73.4398C116.176 73.4322 116.19 73.4245 116.203 73.4168C116.291 73.3664 116.379 73.3148 116.466 73.2621C117.285 72.7474 118.012 72.5808 118.649 72.7625C118.832 72.8148 119.002 72.8835 119.158 72.9685Z" fill="black"/>
<rect width="80" height="80" rx="40" fill="#F17519"/>
<rect width="80" height="80" rx="40" fill="url(#paint0_radial_401_4)"/>
<path d="M22.5393 17H21.2696C20.5684 17 20 17.5709 20 18.2751V61.6274C20 62.3316 20.5684 62.9025 21.2696 62.9025H22.5393C23.2405 62.9025 23.8089 62.3316 23.8089 61.6274V18.2751C23.8089 17.5709 23.2405 17 22.5393 17Z" fill="white"/>
<path d="M32.0447 40.3635C31.9738 40.2581 31.9358 40.1337 31.9358 40.0065C31.9358 39.8792 31.9738 39.7549 32.0447 39.6495L45.1147 20.245C45.3965 19.8245 45.5011 19.3089 45.4055 18.8112C45.3099 18.3134 45.022 17.8739 44.6047 17.5887C44.1859 17.3056 43.6726 17.2006 43.1769 17.2966C42.6813 17.3926 42.2436 17.6817 41.9596 18.1008L27.9935 38.8313C27.9766 38.8568 27.4169 39.659 27.6644 40.5218C27.7121 40.6689 27.7734 40.8112 27.8475 40.9468C27.8661 40.9835 27.887 41.019 27.9099 41.0531L42.3151 62.4392C42.5037 62.7193 42.7953 62.9127 43.1259 62.9768C43.4565 63.041 43.7989 62.9707 44.0778 62.7813L45.1295 62.0673C45.4084 61.8779 45.6009 61.585 45.6648 61.253C45.7287 60.9211 45.6587 60.5772 45.4702 60.2971L32.0447 40.3635Z" fill="white"/>
<path d="M61.0853 45.0037C61.0854 45.0037 61.0854 45.0035 61.0853 45.0034C60.744 44.811 60.346 44.7457 59.9614 44.8189C59.5766 44.8922 59.2299 45.0995 58.9824 45.4043C57.8193 46.6189 56.3249 47.4615 54.6867 47.8263C53.0486 48.1912 51.3396 48.062 49.7742 47.455C48.2089 46.848 46.8569 45.7903 45.888 44.4145C44.919 43.0387 44.3763 41.4062 44.3278 39.7217C44.2793 38.0373 44.7273 36.376 45.6155 34.9463C46.5037 33.5166 47.7926 32.3822 49.3204 31.6855C50.8482 30.9887 52.5469 30.7606 54.2033 31.0298C55.8598 31.299 57.4001 32.0535 58.6311 33.1987C58.7507 33.3103 58.8692 33.4239 58.9824 33.543L59.0882 33.6492C59.4097 33.9708 59.8449 34.1513 60.2986 34.1513C60.7523 34.1513 61.1875 33.9708 61.509 33.6492C61.789 33.3697 61.961 32.9992 61.9941 32.6041C62.0273 32.209 61.9194 31.8149 61.6899 31.4922L61.674 31.472C61.6476 31.4359 61.6211 31.3998 61.5915 31.3658C61.5744 31.3425 61.556 31.3201 61.5365 31.2988C60.4142 30.0931 59.0548 29.1346 57.5444 28.484C56.034 27.8334 54.4056 27.5049 52.7622 27.5193C46.3198 27.5671 41.0391 32.8321 40.9492 39.3031C40.9151 41.7267 41.6154 44.1034 42.9573 46.1181C44.2992 48.1327 46.2193 49.6901 48.4628 50.5837C50.7063 51.4773 53.1673 51.6648 55.5194 51.1214C57.8715 50.578 60.0036 49.3294 61.6328 47.5411C61.6524 47.5177 61.6708 47.4932 61.6878 47.4678L61.7555 47.3551C61.975 46.9535 62.0277 46.4811 61.902 46.0408C61.7764 45.6005 61.4829 45.2279 61.0852 45.004C61.0851 45.0039 61.0851 45.0037 61.0853 45.0037Z" fill="white"/>
<path d="M52.9495 35.5586C52.9495 35.558 52.9499 35.5576 52.9505 35.5576C53.9315 35.5574 54.8761 35.9302 55.5946 36.601C55.6496 36.652 55.7004 36.7072 55.7554 36.7582L55.8019 36.805C55.9491 36.9521 56.1482 37.0347 56.3558 37.0347C56.5634 37.0347 56.7626 36.9521 56.9097 36.805C57.0378 36.677 57.1164 36.5075 57.1315 36.3267C57.1466 36.1459 57.0973 35.9655 56.9922 35.8179L56.9848 35.8094C56.9732 35.7924 56.9605 35.7764 56.9467 35.7605C56.9388 35.7498 56.9303 35.7395 56.9213 35.7297C56.1717 34.9275 55.1988 34.3709 54.1294 34.1324C53.0601 33.8939 51.944 33.9847 50.9268 34.3927C49.9095 34.8008 49.0384 35.5074 48.427 36.4201C47.8156 37.3329 47.4923 38.4096 47.4993 39.5096C47.5064 40.6097 47.8434 41.6821 48.4664 42.5869C49.0895 43.4917 49.9696 44.1869 50.992 44.5818C52.0144 44.9768 53.1315 45.0531 54.1977 44.8008C55.2639 44.5485 56.2297 43.9794 56.969 43.1676C56.978 43.1567 56.9865 43.1454 56.9943 43.1336L57.025 43.0826C57.1254 42.8988 57.1494 42.6826 57.0919 42.4811C57.0345 42.2795 56.9002 42.1089 56.7182 42.0062C56.5618 41.9182 56.3796 41.8884 56.2034 41.922C56.0273 41.9556 55.8687 42.0505 55.7554 42.19C55.3085 42.6559 54.7536 43.0033 54.1403 43.2011C53.5271 43.3989 52.8746 43.441 52.2411 43.3236C51.6077 43.2063 51.0131 42.9331 50.5105 42.5285C50.0079 42.1239 49.613 41.6006 49.3611 41.0052C49.1091 40.4099 49.008 39.7612 49.0668 39.117C49.1256 38.4728 49.3424 37.8533 49.6978 37.3139C50.0533 36.7744 50.5364 36.3319 51.1038 36.0257C51.6709 35.7198 52.3046 35.5597 52.9484 35.5597C52.949 35.5597 52.9495 35.5592 52.9495 35.5586Z" fill="white"/>
<defs>
<radialGradient id="paint0_radial_401_4" cx="0" cy="0" r="1" gradientUnits="userSpaceOnUse" gradientTransform="translate(59.4896 42.6549) rotate(-161.226) scale(78.3674 5078.42)">
<stop stop-color="#F6A11A"/>
<stop offset="1" stop-color="#F6A11A" stop-opacity="0"/>
</radialGradient>
</defs>
</svg>
