<svg xmlns="http://www.w3.org/2000/svg" fill="none" viewBox="0 0 24 24"><path fill="#000000" d="M10.348 7.5a.847.847 0 0 0-.818.86v12.728a.822.822 0 0 0 .486.84.83.83 0 0 0 1.124-.498c.036-.11.048-.227.036-.342V8.361a.841.841 0 0 0-.828-.862ZM2.828 12.09a.848.848 0 0 0-.77.537.841.841 0 0 0-.058.324v8.137a.823.823 0 0 0 .828.825.83.83 0 0 0 .764-.509.823.823 0 0 0 .063-.316v-8.137a.841.841 0 0 0-.827-.862ZM17.878 2a.848.848 0 0 0-.828.862v7.228a.823.823 0 0 0 .828.825.829.829 0 0 0 .827-.825V2.862A.84.84 0 0 0 17.878 2ZM21.105 17.138h-2.4v-2.346a.824.824 0 0 0-.827-.825.829.829 0 0 0-.828.825v2.346h-2.4a.81.81 0 0 0-.894.802.803.803 0 0 0 .56.767.81.81 0 0 0 .335.035h2.4v2.346a.823.823 0 0 0 .827.825.829.829 0 0 0 .827-.825v-2.346h2.4A.81.81 0 0 0 22 17.94a.805.805 0 0 0-.895-.802Z"/></svg>