<svg xmlns="http://www.w3.org/2000/svg" fill="none" viewBox="0 0 24 24"><path fill="#000000" d="M16.206 2a6.04 6.04 0 0 0-4.042 1.488L12 3.63l-.164-.143A6.04 6.04 0 0 0 7.794 2C3.732 2 1 5.836 1 9.415 1 16.215 11.14 21.938 12 22c.86.061 11-5.785 11-12.585C23 5.836 20.268 2 16.206 2Zm-4.093 18.328-.123.061-.123-.061c-2.589-1.364-9.332-5.97-9.332-10.913 0-2.84 2.108-5.876 5.26-5.876a4.637 4.637 0 0 1 3.622 1.702.828.828 0 0 0 1.166 0 4.646 4.646 0 0 1 3.623-1.702c3.151 0 5.26 3.077 5.26 5.876 0 4.944-6.744 9.549-9.343 10.913h-.01Z"/></svg>